<svg xmlns="http://www.w3.org/2000/svg" width="676" height="128.875" viewBox="0 0 676 128.875"><switch><g><path d="M0 98.122h13.905c2.471.047 5.203.128 7.552 1.453 2.685 1.577 3.453 3.834 3.453 6.018 0 3.276-2.052 5.456-4.992 6.353-.941.252-1.919.428-2.903.556 1.112.124 2.18.252 3.203.505 2.944.768 6.098 2.899 6.098 7.256 0 1.023-.171 2.348-.854 3.627-2.3 4.305-7.679 4.305-12.155 4.348H0v-1.112h3.626V99.232H0v-1.11zm9.94 1.2v12.666h3.494c3.331 0 5.116-1.196 5.116-6.185 0-5.633-1.785-6.48-5.285-6.48H9.94zm0 13.86v13.943h4.266c1.402 0 3.109-.167 4.26-2.044.77-1.285.898-2.99.898-4.818 0-2.182-.169-4.18-1.196-5.419-1.234-1.538-3.027-1.662-4.264-1.662H9.94zm18.788-14.846c.815 0 2.221 0 3.761-.041 1.53-.045 3.237-.173 4.598-.426v29.256h2.818v1.112H28.728v-1.112h2.989V99.532h-2.989v-1.196zm23.967 12.071c2.435 0 5.246.042 8.485-.128v16.847h2.817v1.112H55.76v-2.732c-1.658 1.752-3.198 3.241-6.819 3.241-5.293 0-5.248-3.369-5.248-6.136v-11.093h-2.775v-1.11c2.775 0 5.037.042 8.188-.128v13.269c.088 1.363.171 3.233 2.266 3.233.593 0 1.149-.167 1.791-.552 2.598-1.538 2.598-4.177 2.598-6.015v-8.697h-3.066v-1.111zm31.207 12.919c-.978 1.885-2.939 5.421-8.104 5.421-6.051 0-9.765-4.309-9.765-9.461 0-5.34 3.879-9.388 9.425-9.388 2.386 0 4.739.894 6.354 2.642 1.703 1.838 2.002 3.71 2.302 5.633H71.918c0 1.112-.044 2.215 0 3.365.041 1.624.169 5.886 4.434 5.886 3.626 0 5.419-2.9 6.484-4.604l1.066.506zm-5.417-8.871c-.128-1.483-.252-3.582-3.027-3.582-2.982 0-3.246 2.047-3.411 3.753L72 116.935h6.485v-2.48zm32.059-8.477l-1.363-.047c-.421-2.052-1.577-7.336-7.591-7.336-5.545 0-6.613 4.566-6.994 6.183-.725 3.072-.813 6.22-.813 9.386 0 8.657 1.88 13.47 7.167 13.47a7.78 7.78 0 0 0 3.543-.854c3.451-1.746 4.519-5.028 5.156-6.994h1.324l-.471 8.451h-1.022l-1.367-1.881c-.807.726-2.812 2.519-7.163 2.519-9.853 0-14.333-7.589-14.333-15.307 0-9.732 7.166-16.084 14.754-16.084 3.754 0 5.853 1.62 6.953 2.471l.855-1.833h1.106l.259 7.856zm2.718 4.429c2.817 0 5.629-.086 8.404-.385l-.088 3.675c.43-.69.809-1.367 1.32-1.923.984-1.149 2.221-1.876 3.965-1.876 2.648 0 3.759 1.876 3.759 3.537 0 1.192-.679 2.901-2.856 2.901-1.754 0-2.732-1.281-2.732-2.51 0-.772.299-1.247.552-1.585.088-.171.218-.295.218-.424 0-.214-.302-.43-.599-.43-.599 0-1.962 1.744-1.962 1.744-1.365 1.88-1.705 4.185-1.705 5.894v8.101h3.539v1.112h-11.814v-1.112h2.897v-15.608h-2.897v-1.111zm38.973 12.499c-.601 1.662-3.16 5.798-9.345 5.798-6.862 0-10.362-4.689-10.362-9.469 0-6.609 5.884-9.337 10.237-9.337 3.883 0 9.555 2.3 9.981 9.041.09 1.324-.04 2.728-.511 3.967zm-5.843-9.6c-.681-1.532-1.962-2.339-3.667-2.339-4.181 0-4.271 4.434-4.271 8.186 0 5.071.43 5.972.771 6.566.513 1.025 1.664 2.133 3.541 2.133 4.221 0 4.221-4.689 4.183-8.874-.048-4.523-.3-5.118-.557-5.672zm21.909 1.834h-1.196c-.297-1.104-.554-2.086-1.791-3.027-.855-.644-2.092-1.021-3.156-1.021-1.789 0-3.023 1.196-3.023 2.51 0 .644.293 1.324.807 1.752.383.342 1.789.854 2.982 1.157l1.284.338c2.049.595 5.327 1.534 5.327 5.456 0 2.819-1.913 6.441-6.57 6.441-1.962 0-3.49-.852-3.747-1.019-.687-.385-1.067-.646-1.365-.646-.768 0-.728.855-.683 1.155h-1.239v-6.485h1.239c.255 1.367.511 2.938 1.964 4.271 1.06 1.021 2.555 1.577 3.965 1.577 2.214 0 3.622-1.371 3.622-2.732 0-2.257-3.072-2.643-4.816-3.157-2.73-.895-5.76-1.877-5.76-6.051 0-2.82 1.708-5.762 5.717-5.762 1.496 0 2.638.423 3.364.809.432.261.644.342.984.342.768 0 .807-.424.895-1.369h1.196v5.461zm16.877 0h-1.192c-.295-1.104-.554-2.086-1.789-3.027-.85-.644-2.09-1.021-3.158-1.021-1.791 0-3.028 1.196-3.028 2.51 0 .644.298 1.324.811 1.752.383.342 1.793.854 2.985 1.157l1.281.338c2.045.595 5.332 1.534 5.332 5.456 0 2.819-1.921 6.441-6.566 6.441-1.964 0-3.504-.852-3.761-1.019-.678-.385-1.063-.646-1.365-.646-.766 0-.719.855-.679 1.155h-1.241v-6.485h1.241c.253 1.367.509 2.938 1.962 4.271 1.068 1.021 2.561 1.577 3.965 1.577 2.221 0 3.626-1.371 3.626-2.732 0-2.257-3.07-2.643-4.822-3.157-2.728-.895-5.755-1.877-5.755-6.051 0-2.82 1.703-5.762 5.716-5.762 1.494 0 2.646.423 3.37.809.426.261.635.342.979.342.768 0 .811-.424.895-1.369h1.192v5.461zm16.455-17.018h13.903c2.471.047 5.199.128 7.544 1.453 2.687 1.577 3.455 3.834 3.455 6.018 0 3.276-2.045 5.456-4.989 6.353-.937.252-1.923.428-2.899.556 1.112.124 2.174.252 3.199.505 2.946.768 6.102 2.899 6.102 7.256 0 1.023-.175 2.348-.856 3.627-2.3 4.305-7.676 4.305-12.158 4.348h-13.3v-1.112h3.618V99.232h-3.618v-1.11zm9.936 1.2v12.666h3.498c3.323 0 5.114-1.196 5.114-6.185 0-5.633-1.791-6.48-5.291-6.48h-3.321zm0 13.86v13.943h4.264c1.406 0 3.111-.167 4.266-2.044.766-1.285.896-2.99.896-4.818 0-2.182-.175-4.18-1.196-5.419-1.236-1.538-3.029-1.662-4.264-1.662h-3.966zm18.79-14.846c.811 0 2.219 0 3.755-.041 1.536-.045 3.237-.173 4.602-.426v29.256h2.818v1.112h-11.175v-1.112h2.987V99.532h-2.987v-1.196zm23.965 12.071c2.428 0 5.246.042 8.485-.128v16.847h2.817v1.112h-8.235v-2.732c-1.664 1.752-3.198 3.241-6.825 3.241-5.289 0-5.242-3.369-5.242-6.136v-11.093h-2.774v-1.11c2.774 0 5.032.042 8.192-.128v13.269c.082 1.363.165 3.233 2.257 3.233.597 0 1.155-.167 1.791-.552 2.602-1.538 2.602-4.177 2.602-6.015v-8.697h-3.068v-1.111zm31.207 12.919c-.982 1.885-2.944 5.421-8.104 5.421-6.057 0-9.765-4.309-9.765-9.461 0-5.34 3.873-9.388 9.425-9.388 2.384 0 4.732.894 6.352 2.642 1.706 1.838 2.003 3.71 2.306 5.633h-12.201c0 1.112-.047 2.215 0 3.365.043 1.624.169 5.886 4.435 5.886 3.625 0 5.417-2.9 6.483-4.604l1.069.506zm-5.417-8.871c-.132-1.483-.259-3.582-3.027-3.582-2.985 0-3.244 2.047-3.415 3.753l-.043 2.309h6.485v-2.48zm26.946-8.446h-1.367c-.299-1.445-.597-2.942-1.75-4.519-1.705-2.219-3.966-2.763-5.586-2.763-3.496 0-5.544 2.386-5.544 5.152 0 1.371.683 2.646 1.791 3.458.852.642 3.286 1.369 5.672 2.052 2.604.762 5.376 1.66 6.911 3.151 1.063 1.029 2.428 3.156 2.428 6.438 0 2.386-.807 4.779-2.343 6.617-2.221 2.6-4.861 3.28-7.636 3.28-3.749 0-5.757-1.318-7.591-2.557l-1.453 1.919h-1.237v-8.318h1.237c.468 1.367 1.026 3.072 2.473 4.648 1.668 1.828 4.05 2.899 6.442 2.899 3.752 0 6.313-2.557 6.313-5.715 0-3.622-3.027-4.6-5.588-5.417l-1.876-.552c-4.778-1.457-9.125-2.812-9.125-8.749 0-2.604.683-4.946 2.643-6.951 1.962-2.004 4.138-2.6 6.65-2.6 2.984 0 4.612 1.068 6.1 2.005l1.455-1.577h.982v8.099zm4.885-7.714c1.155 0 2.608 0 4.354-.082 2.388-.134 3.239-.263 3.962-.344v15.65c.986-1.19 3.036-3.622 7.082-3.622 2.559 0 3.883.894 4.48 1.571 1.196 1.371 1.155 2.823 1.155 4.227v11.43h2.812v1.112h-10.451v-1.112h2.345v-11.263c.047-2.166-.165-4.089-2.516-4.089-.933 0-1.789.295-2.426.766-2.431 1.663-2.479 4.395-2.518 6.823v7.763h2.602v1.112h-10.879v-1.112h3.072V99.446h-3.072v-1.151zm25.065 13.223v-1.11c1.923 0 2.944-.039 4.056-.086 1.068-.081 2.176-.171 4.181-.299v17.104h2.733v1.112h-10.97v-1.112h2.901v-15.608h-2.901zm4.991-12.029a3.057 3.057 0 0 1 3.074 3.066 3.064 3.064 0 0 1-3.074 3.081 3.064 3.064 0 0 1-3.068-3.081 3.057 3.057 0 0 1 3.068-3.066zm26.098 23.837c-.974 1.885-2.943 5.421-8.108 5.421-6.053 0-9.763-4.309-9.763-9.461 0-5.34 3.882-9.388 9.423-9.388 2.392 0 4.743.894 6.356 2.642 1.713 1.838 2.011 3.71 2.313 5.633h-12.201c0 1.112-.047 2.215 0 3.365.034 1.624.171 5.886 4.433 5.886 3.624 0 5.419-2.9 6.484-4.604l1.063.506zm-5.415-8.871c-.132-1.483-.257-3.582-3.033-3.582-2.98 0-3.237 2.047-3.408 3.753l-.039 2.309h6.48v-2.48zm7.065-16.119c.819 0 2.225 0 3.761-.041 1.536-.045 3.239-.173 4.597-.426v29.256h2.815v1.112h-11.173v-1.112h2.987V99.532h-2.987v-1.196zm24.045 1.072v-1.194h2.864c2.176 0 3.324-.134 5.374-.344v29.256h2.812v1.112h-8.227v-2.686c-.982 1.448-2.095 3.194-5.248 3.194-1.108 0-2.262-.167-3.28-.595-.77-.342-5.077-2.433-5.077-8.617 0-6.563 4.608-9.637 8.149-9.637 3.113 0 4.601 1.748 5.456 2.774V99.408h-2.823zm2.225 14.499c-.729-1.5-2.225-2.563-3.586-2.563-3.023 0-3.753 3.582-3.753 7.941 0 .85.053 1.744.135 2.596.208 1.876.636 5.462 3.532 5.462 1.622 0 3.288-1.581 3.924-3.294.212-.502.563-1.528.51-5.281-.046-2.56-.254-3.881-.762-4.861z"/><g><path fill="#0079C1" d="M535.076 126.792c-2.995 0-5.175-2.168-5.175-5.197 0-2.993 2.18-5.188 5.175-5.188 2.979 0 5.162 2.194 5.162 5.188 0 3.029-2.183 5.197-5.162 5.197m0 .966c3.386 0 6.132-2.767 6.132-6.164 0-3.378-2.746-6.145-6.132-6.145-3.391 0-6.148 2.767-6.148 6.145 0 3.398 2.758 6.164 6.148 6.164m-1.389-5.807h1.495l1.98 3.117h1.007l-2.091-3.117c1.21-.108 2.164-.6 2.164-1.958 0-1.268-.611-1.939-2.445-1.939h-2.999v7.015h.889v-3.118zm0-.809v-2.284h1.923c.852 0 1.654.124 1.654 1.118 0 1.311-1.356 1.166-2.347 1.166h-1.23z"/></g><g><path fill="#0079C1" d="M659.095 126.792c-2.999 0-5.184-2.168-5.184-5.197 0-2.993 2.185-5.188 5.184-5.188 2.982 0 5.162 2.194 5.162 5.188 0 3.029-2.18 5.197-5.162 5.197m0 .966c3.382 0 6.128-2.767 6.128-6.164 0-3.378-2.746-6.145-6.128-6.145-3.395 0-6.153 2.767-6.153 6.145-.001 3.398 2.758 6.164 6.153 6.164m-1.394-5.807h1.499l1.977 3.117h1.006l-2.086-3.117c1.21-.108 2.16-.6 2.16-1.958 0-1.268-.604-1.939-2.438-1.939h-3.007v7.015h.889v-3.118zm0-.809v-2.284h1.923c.855 0 1.654.124 1.654 1.118 0 1.311-1.356 1.166-2.347 1.166h-1.23z"/></g><path fill="#0079C1" d="M557.897 35.575L522.322 35.575 522.322 0 465.738 0 465.738 35.575 430.155 35.575 430.155 92.302 465.738 92.302 465.738 127.879 522.347 127.879 522.322 92.302 557.897 92.302z"/><path fill="#0079C1" d="M668.169.317c-12.086 6.412-24.272 9.812-42.303 9.812-18.055 0-30.226-3.4-42.318-9.808-4.979 8.685-7.815 21.129-7.815 36.608 0 41.144 23.103 68.698 28.799 74.745 5.681 6.041 16.971 15.378 21.335 16.311 4.352-.933 15.646-10.288 21.326-16.323C652.885 105.627 676 78.069 676 36.93c0-15.479-2.844-27.928-7.831-36.613"/><path fill="#FFF" d="M527.171 51.749c-8.764.141-16.611 1.504-21.387 1.772-5.049.31-8.749 2.973-5.351 9.347 3.427 6.377 14.823 27.703 15.271 28.602 8.268-6.419 13.573-16.447 13.573-27.707a34.832 34.832 0 0 0-2.106-12.014m-10.272 31.729s-10.83-20.46-12.004-22.683c-1.194-2.223 0-2.374 1.324-2.514 1.039 0 17.357-1.336 17.357-1.336 2.059 11.559-1.351 19.857-6.677 26.533m-34.837-29.957c-4.678-.265-12.31-1.528-20.85-1.713a35.41 35.41 0 0 0-2.066 11.955c0 11.05 5.118 20.915 13.121 27.353 2.249-4.219 12.057-22.508 15.129-28.247 3.406-6.375-.311-9.037-5.334-9.348m.883 7.274a29439.072 29439.072 0 0 0-12.016 22.683c-5.33-6.676-8.744-14.974-6.666-26.534 0 0 16.307 1.336 17.346 1.336 1.336.141 2.51.292 1.336 2.515m8.276-13.518c1.394-1.426 1.508-3.567-.419-5.906-3.406-4.154-.457-8.155 3.112-8.011 3.558.151 6.52 3.857 3.121 8.011-1.919 2.339-1.825 4.48-.423 5.906 1.083 1.126 2.97 1.807 5.313 1.807l24.15-.008c-2.538-5.499-3.341-6.963-7.713-10.743-5.79-5.016-16.592-9.636-24.158-9.636-9.689 0-18.446 3.936-24.79 10.288a35.435 35.435 0 0 0-7.033 10.083l23.527.016c2.347 0 4.213-.68 5.313-1.807m11.585-12.289c5.496 1.2 10.178 5.423 14.24 9.496h-16.168c0-2.817 3.708-3.268 1.928-9.496m-17.786.011c-1.78 6.218 1.932 6.668 1.932 9.486h-16.177c3.574-4.746 8.752-8.297 14.245-9.486m8.894 31.278c-1.475 0-2.232.904-3.112 2.377-.782 1.302-13.483 19.737-16.438 24.024a34.873 34.873 0 0 0 19.84 6.154 35 35 0 0 0 19.472-5.888s-15.756-22.81-16.641-24.291c-.9-1.471-1.641-2.376-3.121-2.376m0 27.575c-4.894 0-9.196-.882-12.594-2.655 0 0 11.563-18.246 12.594-18.246 1.035 0 12.615 18.246 12.615 18.246-3.414 1.773-7.716 2.655-12.615 2.655m169.108-80.887c-7.493 3.975-21.877 7.688-37.156 7.688-15.3 0-29.676-3.714-37.173-7.688-2.75 4.146-3.98 15.663-3.98 23.588 0 37.117 19.317 60.95 21.934 64.165 3.565 4.339 16.819 16.259 19.22 16.83 2.375-.57 15.639-12.49 19.199-16.83C647.699 97.493 667 73.671 667 36.553c-.001-7.925-1.228-19.442-3.978-23.588m-19.851 84.283c-3.202 3.912-15.141 15.099-17.305 15.657-2.164-.558-14.118-11.745-17.325-15.657-2.376-2.899-19.236-20.947-20.316-57.745-.212-7.135.29-16.769 2.763-20.495 6.748 3.573 21.103 5.603 34.879 5.603 13.739-.004 28.114-2.029 34.858-5.603 2.478 3.726 2.97 13.36 2.771 20.487-1.068 36.806-17.945 54.854-20.325 57.753"/><path fill="#FFF" d="M628.633 86.069c-.603-.249-2.168-.847-2.922-1.165-.949-.406-2.607-1.255-3.288-1.481-.627-.214-1.65-.369-.297-1.071-.054-.988-.176-1.679-.204-2.441 0-.617-.11-1.34-.167-2.078-5.477.049-7.685 8.451 1.251 10.692 1.3.322 1.703.458 2.241.733.985.526 1.365.833 1.813 1.271.579.54.93 1.239.93 2.196v4.284c5.12-2.676 5.638-8.763.643-10.94"/><path fill="#FFF" d="M627.558 75.201c-.889-.255-.901.008-2.693-.186-.97-.112-1.398-.218-2.213-.261-.021.654.037 2.483.073 3.058l.122 1.915v1.503c0 .188.024 1.006.033 1.206.644.344 1.197.9 2.265 1.308.722.265 1.684.731 2.384.831 0-.66-.028-2.074 0-2.754.009-1.286-.073-1.255-.053-2.579.017-.703.082-1.636.126-2.347.024-.346-.053-1.43-.044-1.694m-2.918 15.131c-.681-.202-.692-.132-1.279-.354.13 3.284.31 7.243.342 9.594.058 2.292.118 5.118.118 5.645 1.337.909 3.008.141 3.008.141.036-.367.325-3.948.387-7.837.024-1.589.195-5.128-.48-5.82a4.203 4.203 0 0 0-2.096-1.369m-5.689 9.856c.005.373.103 1.919.836 2.296.269.141.477-.01.587-.181.533-.813.419-2.659 1.527-3.598l-.081-3.498c-1.601.615-2.884 3.019-2.869 4.981"/><path fill="#FFF" d="M628.764 68.351c-1.365-.291-2.095-.466-2.498-.52-2.371-.295-3.109-.242-5.102-.373l-1.23-2.86-1.394-3.419c-4.616 1.791-5.138 10.902 2.001 12.265 3.084.591 4.001.534 4.934.642 1.789.192 3.737.008 4.271.78.949 1.374-.347 1.626-.981 2.325-.204.532-.204.762-.261 1.508-.119 1.192-.135 2.377-.155 3.492 7.691-.773 9.957-11.796.415-13.84m.777-18.957c-.513-.124-1.014-.318-1.576-.458a31.133 31.133 0 0 0-4.352-.753c-1.565-.125-3.012-.544-4.177-.772-8.476-1.717-7.347-5.378-6.816-7.096 1.418.525 2.746.839 4.168 1.027 1.662.209 3.463.271 5.008-.432-1.386-1.204-4.784-1.748-5.814-2.689 0 0 1.833-.236 4.934.114 1.553.186 3.505-.719 3.505-.719-1.157-2.744-4.779-5.315-11.503-4.192-9.258 1.538-12.057 18.721 6.976 21.198 1.116.141 3.301.29 4.552.416 1.98.175 2.909.175 4.059.397.807.155 2.97 3.276.004 3.582 0 0-.477 3.315.366 6.9 8.897.13 12.617-13.616.666-16.523m-8.793-14.387s-.289.859-.904.933c-.57.065-.941-.188-1.324-.442-1.035-.642-1.699-.748-1.699-.748s2.09-.737 3.927.257"/><path fill="#FFF" d="M621.938 66.53L627.528 67.049 627.528 56.233 621.151 55.744 618.895 59.391 620.374 63.001z"/><path fill="#FFF" d="M634.513 34.813c-.974.656-3.957 3.329-5.114 3.901-.619.31-.484-5.521-.484-5.521.045-.475-1.491-1.477-3.117-2.137-.191-.102-.465-.409-.941-.638-2.53-.813-3.915-1.344-3.847 1.072.021.389-.162.882.29 1.614 0 0 2.44 1.204 3.516 3.251.632 1.208.808 1.962.808 1.962s-.534.446-2.099.676c1.198.385 2.204.878 3.146 1.045l.889.972c-.693.073-2.571-.179-4.621-.844l.293.933c-.822.679-1.182.854-2.57.994-.069 1.581.024 3.315.265 4.743l6.89 1.143c.563-.326 1.174-1.55 1.243-1.62 1.227-1.314 3.573-3.777 8.491-8.552 1.867-1.816-1.063-4.312-3.038-2.994"/><g fill="#0079C1"><path d="M325.265 40.275c-3.131-2.776-7.503-4.241-12.647-4.241-4.578 0-9.155 2.1-12.542 5.761-3.626 3.91-5.629 9.264-5.643 15.086-.015 5.704 2.063 10.93 5.845 14.715 3.608 3.612 8.408 5.594 13.523 5.582 9.885-.018 15.429-7.324 16.407-14.114l.053-.354H327.2l-.039.275c-.697 5.503-5.378 11.346-12.687 11.328-5.833-.008-9.182-3.995-9.196-10.942v-9.223h25.581l-.017-.315c-.186-5.895-2.065-10.457-5.577-13.558zm-5.358 10.999H305.23v-4.148c-.004-2.713.778-4.942 2.27-6.432 1.308-1.298 3.101-2.009 5.055-2.009 4.73.016 7.34 3.023 7.353 8.463l-.001 4.126zm-74.81 17.012H242.234l-.047.249c-.344 1.821-1.471 4.861-5.175 4.849-2.877-.008-4.339-2.021-4.352-5.976V39.825H242.117l-.004-.303-.006-2.09v-.31h-9.388V25.177l-.338.039c-2.21.249-6.711.583-9.05.583h-.308v11.315H216.778V39.83H223.066v24.016c.008 8.846 3.797 13.334 11.258 13.334 8.565 0 10.366-6.532 10.716-8.532l.057-.362zm-34.031 5.12V48.982c0-3.779-1.22-7.004-3.542-9.329-2.325-2.313-5.67-3.602-9.417-3.594-5.12.004-9.235 2.063-12.258 6.085l-.083-4.698-.004-.299h-15.388v2.677H176.423v33.581h-10.788L143.501 9.834l-.069-.206h-2.706l-.074.206-21.654 63.572h-6.1v2.671H130.994v-2.671h-8.337l6.018-18.152h19.354l6.114 18.152H145.712v2.671H191.892v-2.671H185.867V54.76c.012-11.12 5.945-15.153 9.928-15.145 3.857 0 5.814 2.498 5.819 7.422v26.369h-5.658v2.671h21.246v-2.671h-6.136zm-72.962-46.799l9.068 25.888h-17.551l8.483-25.888z"/><path d="M286.992 73.406V48.602c-.004-5.792-3.522-12.55-13.422-12.542-7.668.004-11.643 3.726-13.354 5.649V9.813h-15.401v2.767h5.766v60.826H244.351v2.671h21.811v-2.671h-5.947V54.52c0-6.528 2.231-10.117 4.101-11.998 1.817-1.807 4.128-2.81 6.523-2.806 5.285.006 6.41 4.348 6.428 7.988v25.701h-5.953v2.671h21.814v-2.671H286.992zm115.366 0h-5.921V47.102c-.008-6.819-4.682-11.05-12.179-11.042-7.086.004-10.952 3.533-12.753 5.902-1.977-3.858-5.795-5.91-11.102-5.902-5.057.004-9.598 1.876-12.613 5.136l-.081-3.749-.013-.299h-15.661v2.677h6.414v33.581h-6.32v2.671H353.44v-2.671h-5.444v-18.56c.175-5.393.432-8.862 2.347-11.531 1.671-2.215 4.317-3.592 6.917-3.592 3.213 0 4.344 2.414 4.46 2.689.809 1.542.809 4.193.809 6.762v24.232h-5.683v2.671h20.975v-2.671h-5.464v-18.56c.179-5.393.424-8.862 2.354-11.531 1.663-2.215 4.312-3.592 6.911-3.592 3.21 0 4.343 2.414 4.457 2.689.811 1.542.811 4.193.811 6.762v24.232H381.235v2.671h21.429v-2.671h-.306z"/></g><g><path fill="#0079C1" d="M413.433 76.235c-2.998 0-5.183-2.176-5.183-5.195 0-2.999 2.185-5.187 5.183-5.187 2.979 0 5.159 2.188 5.159 5.187 0 3.02-2.181 5.195-5.159 5.195m0 .964c3.382 0 6.125-2.763 6.125-6.159 0-3.384-2.743-6.151-6.125-6.151-3.397 0-6.156 2.767-6.156 6.151a6.161 6.161 0 0 0 6.156 6.159m-1.398-5.802h1.504l1.976 3.117h1.007l-2.086-3.117c1.21-.112 2.155-.605 2.155-1.958 0-1.273-.599-1.945-2.433-1.945h-3.007v7.021h.884v-3.118zm0-.815v-2.278h1.924c.855 0 1.658.125 1.658 1.108 0 1.32-1.357 1.169-2.343 1.169h-1.239z"/></g></g></switch></svg>