<svg xmlns="http://www.w3.org/2000/svg" viewBox="0 0 323.97 843.65"><defs><style>.cls-1{fill:#b5b5b5}.cls-2{opacity:.5}.cls-3{clip-path:url(#clip-path)}</style><clipPath id="clip-path"><path class="cls-1" d="M68 245.51s6.66-6 9.87-17.8 3.7-11.91 4.82-1.91 5 2.41 2.33-14.3c-1.57-9.77-2.08-12.54-3.3-49-.8 46.83-6.18 64.84-13.72 83m20.1-97.75c-3.1 6.71-4.83 13.91-1.93 24.82s1.58 11.86 9.37 14.66 9.5 4.85 15 5.55 7.39-3.2 7.39-3.2c-9.4-4.69-20-11.91-23.94-20.61s-3.69-11.55-3-19.15c.35-4.24.4-6.47-.17-6.47s-1.29 1.42-2.66 4.39m-74.51 29.12C7.11 205.3 0 218.09 1 251.3s3.52 35.22 12.84 61.23 5.13 45.23 20.56 74.85c3.28 6.29 3.9 12.52 5.76 17.63C47 424 55 426.85 63 450.21c8.9 26 12.85 29.62 27 56s21 30.17 25.52 60.59-.38 40.78 11.51 92c2 8.84 7.31 22.48 9 30.75 8 39.53 14.57 72 22.08 94.51 9.19 27.44 7.83 40.7 14.46 59.55 2.62-22.37-.5-45.82-3.4-63.75s-16.52-94.35-28.72-115.15-15.26-47-14-71.84c.88-17-5.67-41.24-12.36-56.36C106.78 520.11 71.8 453 82.07 469s25.89 25.75 9.8 3.81-39.91-45.55-21.2-40c6.86 2 9.79 3.13 9.87 3.16a125.19 125.19 0 0 1-19.6-10.17c-18-11.21-23.29-43.12-19.45-74.34s9.73-36.52.75-23.72-9.8 29.82-13.81 20.81-5-21.21-9.49-42.82S3.85 267.91 7.7 239.89c2.3-16.95 9.3-36.54 13.44-56.56 2.73-13.08 5.83-49.95 8.69-61.63 3.8-15.59 10.71-39.3 13.53-78.52-4.94 35.91-23.18 105.24-29.71 133.68M192.56 30a266.86 266.86 0 0 1 11.9 57.63c3.21 33.22 6.41 76 1.91 118.07s-2.64 37.92-5.13 32.92-4.81-8.6-3.45-3.11 2.73 8.3 2.73 14.5-1.12 64.84-.16 79.25-4.17-10.41-6.11-13.82-3-6.85-2.89-13.46-7.23-18.15-12.85-24.35-2.25 5.4-.17 13.21 6.27 13.6 8.84 20.81 6.26 8 8.51 24 2.58 30.62-.64 41.43c-4.79 16.12-10.83 18.08-18.64 19.54 6.93 1.83 14.59-3.49 16.88-6.34 1.6-2 .68 3.29-1.45 8.11-3.1 7-3.81 14-2.4 29.12.53-3.86 3-25.22 6.58-23.61 2.25 1 3.37 5.8 3.69 14.6s5.3 38.63 17.5 48.23 41 22.9 54.85 45.23 20 41.82 32.2 92.65c11.55 48.08 4.95 125.41-3.41 185-2.12 15.06 15.93-79.17 18.6-101.09 3.86-31.62 4.51-80-5.13-112.87s-28-58-44.65-75.64-44-34.63-50.43-49.64-6-27.42-9-38.62-5.13-35.42-5.62-39.63 1.6-9 1.6-17.8-1.11-8.6-1.27-14.81.48-32.81-.17-41 1.6-34.41 4.49-52.82 2.9-51.64 2.58-66.84 1-58.43-2.58-79.25-10.91-59.6-15.09-73.19S184.87 0 184.87 0z"/></clipPath></defs><title>body-graphic</title><g id="Layer_2" data-name="Layer 2"><g class="cls-2" id="Layer_1-2" data-name="Layer 1"><path class="cls-1" d="M68 245.51s6.66-6 9.87-17.8 3.7-11.91 4.82-1.91 5 2.41 2.33-14.3c-1.57-9.77-2.08-12.54-3.3-49-.8 46.83-6.18 64.84-13.72 83m20.1-97.75c-3.1 6.71-4.83 13.91-1.93 24.82s1.58 11.86 9.37 14.66 9.5 4.85 15 5.55 7.39-3.2 7.39-3.2c-9.4-4.69-20-11.91-23.94-20.61s-3.69-11.55-3-19.15c.35-4.24.4-6.47-.17-6.47s-1.29 1.42-2.66 4.39m-74.51 29.12C7.11 205.3 0 218.09 1 251.3s3.52 35.22 12.84 61.23 5.13 45.23 20.56 74.85c3.28 6.29 3.9 12.52 5.76 17.63C47 424 55 426.85 63 450.21c8.9 26 12.85 29.62 27 56s21 30.17 25.52 60.59-.38 40.78 11.51 92c2 8.84 7.31 22.48 9 30.75 8 39.53 14.57 72 22.08 94.51 9.19 27.44 7.83 40.7 14.46 59.55 2.62-22.37-.5-45.82-3.4-63.75s-16.52-94.35-28.72-115.15-15.26-47-14-71.84c.88-17-5.67-41.24-12.36-56.36C106.78 520.11 71.8 453 82.07 469s25.89 25.75 9.8 3.81-39.91-45.55-21.2-40c6.86 2 9.79 3.13 9.87 3.16a125.19 125.19 0 0 1-19.6-10.17c-18-11.21-23.29-43.12-19.45-74.34s9.73-36.52.75-23.72-9.8 29.82-13.81 20.81-5-21.21-9.49-42.82S3.85 267.91 7.7 239.89c2.3-16.95 9.3-36.54 13.44-56.56 2.73-13.08 5.83-49.95 8.69-61.63 3.8-15.59 10.71-39.3 13.53-78.52-4.94 35.91-23.18 105.24-29.71 133.68M192.56 30a266.86 266.86 0 0 1 11.9 57.63c3.21 33.22 6.41 76 1.91 118.07s-2.64 37.92-5.13 32.92-4.81-8.6-3.45-3.11 2.73 8.3 2.73 14.5-1.12 64.84-.16 79.25-4.17-10.41-6.11-13.82-3-6.85-2.89-13.46-7.23-18.15-12.85-24.35-2.25 5.4-.17 13.21 6.27 13.6 8.84 20.81 6.26 8 8.51 24 2.58 30.62-.64 41.43c-4.79 16.12-10.83 18.08-18.64 19.54 6.93 1.83 14.59-3.49 16.88-6.34 1.6-2 .68 3.29-1.45 8.11-3.1 7-3.81 14-2.4 29.12.53-3.86 3-25.22 6.58-23.61 2.25 1 3.37 5.8 3.69 14.6s5.3 38.63 17.5 48.23 41 22.9 54.85 45.23 20 41.82 32.2 92.65c11.55 48.08 4.95 125.41-3.41 185-2.12 15.06 15.93-79.17 18.6-101.09 3.86-31.62 4.51-80-5.13-112.87s-28-58-44.65-75.64-44-34.63-50.43-49.64-6-27.42-9-38.62-5.13-35.42-5.62-39.63 1.6-9 1.6-17.8-1.11-8.6-1.27-14.81.48-32.81-.17-41 1.6-34.41 4.49-52.82 2.9-51.64 2.58-66.84 1-58.43-2.58-79.25-10.91-59.6-15.09-73.19S184.87 0 184.87 0z"/><g class="cls-3"><path class="cls-1" d="M0 0H323.97V843.65H0z"/></g></g></g></svg>