<svg xmlns="http://www.w3.org/2000/svg" viewBox="0 0 290.24 377.56"><defs><style>.cls-1{opacity:.15}.cls-2{fill:#fff}.cls-3{fill:url(#linear-gradient)}</style><linearGradient id="linear-gradient" x1="68.89" y1="170.27" x2="356.34" y2="170.27" gradientTransform="rotate(1.74 159.108 -2057.807)" gradientUnits="userSpaceOnUse"><stop offset=".23" stop-color="#b38b41"/><stop offset=".61" stop-color="#b59e5f"/><stop offset=".87" stop-color="#c8b273"/></linearGradient></defs><title>icon-transparent</title><g id="Layer_2" data-name="Layer 2"><g class="cls-1" id="Layer_1-2" data-name="Layer 1"><ellipse class="cls-2" cx="125.42" cy="29.07" rx="23.91" ry="29.09" transform="rotate(-3.24 125.51 29.028)"/><path class="cls-3" d="M280.23 71.65a88.65 88.65 0 0 0-37-40.33 162.56 162.56 0 0 0-12.44 12.85 76.65 76.65 0 0 1 16.4 23.09c24.77 53.12-6.48 131.69-69.8 175.48S42.65 279 17.88 225.83c-12.55-26.92-10.71-60.37 2.39-92.52C-1.65 175.91-6.9 222.24 10 258.51c29.2 62.6 113.36 71.49 188 19.91s111.42-144.17 82.23-206.77z"/><path class="cls-2" d="M142.88 93a208.7 208.7 0 0 1 24.37 55.66 249.28 249.28 0 0 1 7.39-30.77C191.49 63.5 224.38 24.45 262.7 6.78 215 3.26 168.26 35.91 142.88 93zm2.07 55.35C123.88 76.84 71.84 34.06 18 37.28c2.11 1 4.2 2.11 6.28 3.25l1.76 1q2.48 1.41 4.91 2.95c.46.29.93.57 1.39.86q2.92 1.89 5.77 4c.62.45 1.23.91 1.84 1.37Q42 52.22 44 53.85c.67.54 1.33 1.07 2 1.62 1.77 1.48 3.53 3 5.26 4.59.57.52 1.12 1.07 1.68 1.6 22.41 21.19 40.67 51.12 51.51 87.94a256.42 256.42 0 0 1 7.42 109.62 120.16 120.16 0 0 0 22.69-10.56v.05q2.35-1.38 4.67-2.88 2.26-1.45 4.5-3l1-.75c1.18-.84 2.36-1.69 3.53-2.57 1.56-1.18 3.11-2.4 4.65-3.66a230.51 230.51 0 0 0-7.96-87.5zM133 320.43l-1.45.44q-3 .88-6 1.59l-1.85.42a114 114 0 0 1-13.52 2.24c-1.06.11-2.12.19-3.18.27a178.57 178.57 0 0 1-23.28 39.81c-1.35 1.73-2.74 3.41-4.16 5.07-.37.43-.72.88-1.09 1.3-1.79 2.05-3.62 4.05-5.5 6a104.79 104.79 0 0 0 22.44-10.92c18.06-11.57 32.87-28.31 44-48.35-2.12.77-4.27 1.47-6.41 2.13z"/></g></g></svg>