<svg xmlns="http://www.w3.org/2000/svg" viewBox="0 0 123.03 167.44"><defs><style>.cls-1{fill:#1e2026}.cls-2{fill:#fff}.cls-3{fill:url(#linear-gradient)}.cls-4{fill:#b38b41}</style><linearGradient id="linear-gradient" x1="4.89" y1="62.61" x2="69.1" y2="62.61" gradientTransform="rotate(1.74 75.38 995.099)" gradientUnits="userSpaceOnUse"><stop offset=".23" stop-color="#b38b41"/><stop offset=".61" stop-color="#b59e5f"/><stop offset=".87" stop-color="#c8b273"/></linearGradient></defs><title>logo</title><g id="Layer_2" data-name="Layer 2"><g id="Layer_1-2" data-name="Layer 1"><path class="cls-1" d="M0 0H123.03V167.44H0z"/><ellipse class="cls-2" cx="60.96" cy="30.21" rx="5.34" ry="6.5" transform="rotate(-3.24 61.072 30.213)"/><path class="cls-3" d="M95.54 39.72a19.8 19.8 0 0 0-8.26-9 36.31 36.31 0 0 0-2.78 2.87 17.12 17.12 0 0 1 3.66 5.16c5.53 11.87-1.45 29.42-15.59 39.2S42.47 86 36.94 74.16c-2.8-6-2.39-13.49.53-20.67-4.9 9.52-6.07 19.87-2.29 28 6.52 14 25.32 16 42 4.45s24.89-32.24 18.36-46.22z"/><path class="cls-2" d="M64.86 44.48a46.62 46.62 0 0 1 5.44 12.43A55.69 55.69 0 0 1 72 50c3.72-12.1 11.07-20.83 19.63-24.77-10.63-.79-21.1 6.5-26.77 19.25zm.46 12.37C60.62 40.88 49 31.32 37 32c.47.23.94.47 1.4.73l.39.22q.55.32 1.1.66l.31.19q.65.42 1.29.89l.41.31.91.71.45.36c.4.33.79.67 1.17 1l.37.36a43.88 43.88 0 0 1 11.49 19.7 57.28 57.28 0 0 1 1.66 24.49A26.84 26.84 0 0 0 63 79.26l1-.64 1-.67.23-.17.79-.57c.35-.26.7-.54 1-.82a51.49 51.49 0 0 0-1.7-19.54zm-2.67 38.44l-.32.1q-.67.2-1.33.36l-.41.09a25.48 25.48 0 0 1-3 .5l-.71.06a39.89 39.89 0 0 1-5.2 8.89c-.3.39-.61.76-.93 1.13l-.24.29c-.4.46-.81.91-1.23 1.34a23.41 23.41 0 0 0 5-2.44 29.91 29.91 0 0 0 9.83-10.8c-.5.19-.98.33-1.46.48zM20.1 124.3l3.66 8.43q.26.64.52 1.17a.84.84 0 0 0 .56.39 2.47 2.47 0 0 0 .66.15s.07.1.07.29a.51.51 0 0 1 0 .24l-2.19-.1-2.26.1a.43.43 0 0 1-.07-.3q0-.23.07-.23a2.41 2.41 0 0 0 .57-.1q.37-.1.44-.23a.43.43 0 0 0 .05-.21 3.48 3.48 0 0 0-.33-1.11l-.61-1.5a.2.2 0 0 0-.12-.06h-3.5c-.07 0-.1 0-.1.06l-.66 1.5a4.31 4.31 0 0 0-.33 1 .35.35 0 0 0 .19.32 1.84 1.84 0 0 0 .55.18 3.24 3.24 0 0 0 .53.08s.05.09.05.23a1 1 0 0 1 0 .31H14.78l-.88.06a.32.32 0 0 1-.07-.24v-.29a2.69 2.69 0 0 0 .67-.14 1.09 1.09 0 0 0 .58-.31 7.45 7.45 0 0 0 .66-1.26l3.26-7.24a3.42 3.42 0 0 1 .64-1.16.46.46 0 0 1 .3-.11.3.3 0 0 1 .16.08zm-2.09 6H20.69v-.06L19.41 127 18 130.22v.07zm10.92-5.97h3a6.1 6.1 0 0 1 4.43 1.55 4.91 4.91 0 0 1 1.64 3.64 5.21 5.21 0 0 1-1.61 3.89 6.08 6.08 0 0 1-4.46 1.59h-2.98l-2.32.06s-.05-.12-.05-.26 0-.27.05-.27a3.09 3.09 0 0 0 .66-.1q.44-.1.51-.25a5.41 5.41 0 0 0 .12-1.46v-6.08a4.72 4.72 0 0 0-.12-1.32q-.05-.18-.49-.29a2.94 2.94 0 0 0-.7-.11s-.07-.08-.07-.24a.41.41 0 0 1 .07-.29q1.16-.06 2.32-.06zm1 2.06v6.31a2.43 2.43 0 0 0 .19 1.19 4.56 4.56 0 0 0 2.12.26q3.53 0 3.53-4.7a4.93 4.93 0 0 0-.95-3.06 3.19 3.19 0 0 0-2.71-1.26H32q-1.67 0-1.88.26a1.66 1.66 0 0 0-.23 1zM41 124.37l2.38-.1a.54.54 0 0 1 .05.3q0 .23-.07.23a2.23 2.23 0 0 0-.37 0 1.52 1.52 0 0 0-.47.18.4.4 0 0 0-.24.35 22.87 22.87 0 0 0 1.32 3.3q.21.52.35.79.21.5.52 1.15t.54 1.07a2.07 2.07 0 0 0 .23.39l2.54-5.55a3.08 3.08 0 0 0 .35-1.11q0-.29-.41-.44a2.35 2.35 0 0 0-.83-.15s-.07-.08-.06-.23a.83.83 0 0 1 0-.3h2.94l.85-.06a.64.64 0 0 1 0 .24v.27a2.08 2.08 0 0 0-.6.12 1.34 1.34 0 0 0-.58.35 12.18 12.18 0 0 0-.75 1.42l-3.62 7.84q-.26.58-.68.58a.32.32 0 0 1-.28-.16l-3.59-8.24a14.68 14.68 0 0 0-.66-1.43.88.88 0 0 0-.54-.33 2.53 2.53 0 0 0-.66-.12s-.07-.08-.07-.24a.52.52 0 0 1 .05-.29h1q.9.17 1.36.17zm13.84-.07l3.66 8.43q.26.64.52 1.17a.84.84 0 0 0 .56.39 2.47 2.47 0 0 0 .66.15s.07.1.07.29a.51.51 0 0 1 0 .24l-2.19-.1-2.26.1a.43.43 0 0 1-.07-.3q0-.23.07-.23a2.41 2.41 0 0 0 .57-.1q.37-.1.44-.23a.43.43 0 0 0 .05-.21 3.48 3.48 0 0 0-.33-1.11l-.61-1.5a.2.2 0 0 0-.12-.06h-3.5c-.07 0-.1 0-.1.06l-.66 1.5a4.31 4.31 0 0 0-.33 1 .35.35 0 0 0 .19.32 1.84 1.84 0 0 0 .55.18 3.24 3.24 0 0 0 .53.08s.05.09.05.23a1 1 0 0 1 0 .31H49.52l-.88.06a.32.32 0 0 1-.07-.24v-.29a2.69 2.69 0 0 0 .67-.14 1.09 1.09 0 0 0 .58-.31 7.45 7.45 0 0 0 .66-1.26l3.24-7.24a3.42 3.42 0 0 1 .64-1.16.46.46 0 0 1 .3-.11.3.3 0 0 1 .18.08zm-2.09 6H55.43v-.06L54.14 127l-1.43 3.22s.02.07.04.07zm18.04-3.79a3.64 3.64 0 0 0-.17-1.29q-.09-.19-.58-.31a3.75 3.75 0 0 0-.77-.11s-.07-.08-.08-.23a.51.51 0 0 1 0-.3q1.86.11 2.19.11t1.17-.06l.89-.06a.63.63 0 0 1 0 .26c0 .18 0 .27-.07.27a3.57 3.57 0 0 0-.75.12 1.16 1.16 0 0 0-.66.33 3.5 3.5 0 0 0-.19 1.34v6.1q0 .58.07 2.25a.68.68 0 0 1-.38.06.75.75 0 0 1-.56-.37l-6.9-8.48v6.52a4.15 4.15 0 0 0 .14 1.32q.09.19.64.33a3.86 3.86 0 0 0 .78.14s.05.08.06.23a.81.81 0 0 1 0 .31l-2.18-.1h-1.16l-.91.06a.38.38 0 0 1-.07-.27q0-.26.07-.26a3.56 3.56 0 0 0 .79-.12 1 1 0 0 0 .64-.36 3.42 3.42 0 0 0 .17-1.35v-6.29a2.45 2.45 0 0 0-.19-1.17q-.07-.11-.6-.21a4.85 4.85 0 0 0-.77-.1s-.07-.08-.08-.24 0-.26.06-.31l2.07.08q.57 0 1.57-.08a16.59 16.59 0 0 0 1.22 1.73q.88 1.13 2.41 3t2.09 2.57a4.26 4.26 0 0 0 0-.66zM84.63 132a8.35 8.35 0 0 1-.26 1.25q-.26 1-.4 1.1a10.05 10.05 0 0 1-4 .68 5.44 5.44 0 0 1-3.97-1.57 5 5 0 0 1-1.62-3.72 5.31 5.31 0 0 1 1.62-3.92 5.57 5.57 0 0 1 4.07-1.63 20.66 20.66 0 0 1 4.11.43 4.3 4.3 0 0 1 .1 1.05q.05 1 .05 1.3t-.42.24a.59.59 0 0 1-.24-.06 2.15 2.15 0 0 0-.25-.6 4.15 4.15 0 0 0-.55-.69 2.69 2.69 0 0 0-1.08-.64 5 5 0 0 0-1.65-.25 3.1 3.1 0 0 0-2.66 1.3 5.16 5.16 0 0 0-.95 3.12 5.51 5.51 0 0 0 1.07 3.44 3.57 3.57 0 0 0 3 1.41 3.33 3.33 0 0 0 2.45-.9 2.19 2.19 0 0 0 .41-.6q.18-.38.28-.64t.13-.26q.69.01.76.16zm3.99-7.65q.77 0 2.7-.06t2.92-.06q.07.48.28 1.34l.23.94a.57.57 0 0 1-.37.08q-.19 0-.24-.11a2.18 2.18 0 0 0-2.23-1.43H91q-1.29 0-1.32.21a6.16 6.16 0 0 0-.1 1.3v2.53q0 .1.77.1h1a4.76 4.76 0 0 0 1.2-.08q.19-.08.3-.56.05-.24.1-.4t.28-.11a.5.5 0 0 1 .33.08v3a.55.55 0 0 1-.33.06c-.15 0-.24 0-.28-.13a4.8 4.8 0 0 0-.22-.64.93.93 0 0 0-.12-.22l-.15-.1a5.16 5.16 0 0 0-1.6-.13q-1.25 0-1.25.13v2.49a4 4 0 0 0 .16 1.3q.09.21 1.18.21h.64a5 5 0 0 0 2.07-.34 1.94 1.94 0 0 0 .63-.56 3.31 3.31 0 0 0 .54-1c0-.06.09-.1.24-.1a.8.8 0 0 1 .49.1l-.25.66-.3.78q-.1.27-.23.65a4.08 4.08 0 0 0-.16.63H88.67l-2.32.06s-.05-.12-.05-.26 0-.27.05-.27a3.09 3.09 0 0 0 .66-.1q.44-.1.51-.25a5.41 5.41 0 0 0 .12-1.46v-6.08a4.72 4.72 0 0 0-.12-1.32q-.05-.18-.49-.29a2.94 2.94 0 0 0-.7-.11s-.07-.08-.07-.24a.41.41 0 0 1 .07-.29q1.12.05 2.29.05zm10.52-.02h3a6.1 6.1 0 0 1 4.43 1.55 4.91 4.91 0 0 1 1.59 3.64 5.21 5.21 0 0 1-1.61 3.89 6.08 6.08 0 0 1-4.43 1.57h-2.98l-2.32.06s-.05-.12-.05-.26 0-.27.05-.27a3.09 3.09 0 0 0 .66-.1q.44-.1.51-.25a5.41 5.41 0 0 0 .12-1.46v-6.08a4.72 4.72 0 0 0-.12-1.32q-.05-.18-.49-.29a2.94 2.94 0 0 0-.7-.11s-.07-.08-.07-.24a.41.41 0 0 1 .07-.29q1.2-.04 2.34-.04zm1 2.06v6.31a2.43 2.43 0 0 0 .19 1.19 4.56 4.56 0 0 0 2.12.26q3.53 0 3.53-4.7a4.93 4.93 0 0 0-.95-3.06 3.19 3.19 0 0 0-2.71-1.26h-.09q-1.67 0-1.88.26a1.66 1.66 0 0 0-.25 1z"/><path class="cls-4" d="M15.11 150.83v-6.08a4.72 4.72 0 0 0-.12-1.32q-.05-.18-.49-.29a2.94 2.94 0 0 0-.7-.11s-.07-.08-.07-.24a.41.41 0 0 1 .07-.29H18.66a5.55 5.55 0 0 1 1.25.15 5.42 5.42 0 0 1 1.22.44 2.49 2.49 0 0 1 1 .86 2.3 2.3 0 0 1 .37 1.3 1.79 1.79 0 0 1-.37 1.08 2.7 2.7 0 0 1-.69.7 3 3 0 0 1-.55.28c-.09 0-.12.06-.07.1a2.86 2.86 0 0 1 1.44.85 2.44 2.44 0 0 1 .79 1.84 2.54 2.54 0 0 1-1.21 2.2 5.55 5.55 0 0 1-3.21.8h-2.47l-2.32.06s-.05-.12-.05-.26 0-.27.05-.27a3.09 3.09 0 0 0 .66-.1q.44-.1.51-.25a5.41 5.41 0 0 0 .1-1.45zm4-3.78a1.45 1.45 0 0 0 1.27-1.58q0-2.17-2-2.17a5 5 0 0 0-1.11.08.16.16 0 0 0-.14.18V147q0 .16 1 .16a3.71 3.71 0 0 0 .96-.16zm1.81 3.25a2.41 2.41 0 0 0-.62-1.7 2.61 2.61 0 0 0-2-.67 7.82 7.82 0 0 0-1.08.08.34.34 0 0 0-.14.32v3q0 .68.21.84a2.33 2.33 0 0 0 1.11.16 3.84 3.84 0 0 0 .75-.07 3.93 3.93 0 0 0 .79-.26 1.52 1.52 0 0 0 .7-.63 2 2 0 0 0 .27-1.07zm4.75-5.57a4.5 4.5 0 0 0-.14-1.35q-.07-.13-.49-.25a2.49 2.49 0 0 0-.63-.12s-.07-.08-.07-.24a.61.61 0 0 1 0-.29h2.35l2.23-.1a.78.78 0 0 1 .05.26c0 .18 0 .27-.07.27a3 3 0 0 0-.63.13q-.47.13-.51.24a5.54 5.54 0 0 0-.14 1.42v6.05a5.52 5.52 0 0 0 .16 1.45c0 .08.18.15.48.23a2.87 2.87 0 0 0 .6.12s.07.1.07.31a.66.66 0 0 1 0 .23l-2.21-.1H24.41a.3.3 0 0 1-.07-.23q0-.31.07-.31a3 3 0 0 0 .65-.11q.44-.11.5-.24a5.22 5.22 0 0 0 .14-1.35zm6.24 6.97a5.35 5.35 0 0 1 0-7.7 5.65 5.65 0 0 1 7.88 0 5.33 5.33 0 0 1 0 7.7 5.67 5.67 0 0 1-7.88 0zm3.67-8.51a2.54 2.54 0 0 0-2.29 1.26 5.63 5.63 0 0 0-.79 3 7.37 7.37 0 0 0 .36 2.3 4.43 4.43 0 0 0 1.21 1.89 2.9 2.9 0 0 0 2.05.8 2.56 2.56 0 0 0 2.29-1.28 5.58 5.58 0 0 0 .81-3 7.59 7.59 0 0 0-.35-2.33 4.26 4.26 0 0 0-1.2-1.87 3 3 0 0 0-2.09-.78zm7.34 2.05a2.47 2.47 0 0 1 1.1-2 4 4 0 0 1 2.47-.83 6.57 6.57 0 0 1 .85 0q.37 0 1 .2l.9.2a13.28 13.28 0 0 1 .21 2.48.19.19 0 0 1-.21.15q-.47 0-.5-.15a2.74 2.74 0 0 0-.75-1.45 2 2 0 0 0-1.57-.71 1.68 1.68 0 0 0-1.23.42 1.51 1.51 0 0 0-.43 1.13 1.69 1.69 0 0 0 .06.46 1.1 1.1 0 0 0 .24.43l.3.35a2 2 0 0 0 .44.35l.44.29.52.31a5.38 5.38 0 0 0 .5.27 6.45 6.45 0 0 0 .58.35l.67.39q.19.12.56.41a2.39 2.39 0 0 1 .53.55 3.19 3.19 0 0 1 .3.65 2.58 2.58 0 0 1-1 3 4.24 4.24 0 0 1-2.6.84 17.46 17.46 0 0 1-3.2-.45 13.08 13.08 0 0 1-.29-1.46 10.11 10.11 0 0 1-.13-1.15q0-.13.28-.13.45 0 .51.13a3 3 0 0 0 .24.64 4.61 4.61 0 0 0 .48.74 2.26 2.26 0 0 0 .82.64 2.62 2.62 0 0 0 1.16.25 2 2 0 0 0 1.36-.45 1.66 1.66 0 0 0 .54-1.35 1.31 1.31 0 0 0-.11-.53 1.81 1.81 0 0 0-.26-.43 2.48 2.48 0 0 0-.44-.39q-.29-.21-.48-.32l-.57-.31-.53-.28-.19-.13-.77-.45q-.26-.16-.67-.48a3.3 3.3 0 0 1-.62-.59 2.94 2.94 0 0 1-.37-.68 2.25 2.25 0 0 1-.14-.91zm18.62 4.96a8.35 8.35 0 0 1-.26 1.25q-.26 1-.4 1.1a10.05 10.05 0 0 1-4 .68 5.44 5.44 0 0 1-3.92-1.56 5 5 0 0 1-1.62-3.72A5.31 5.31 0 0 1 53 144a5.57 5.57 0 0 1 4-1.61 20.66 20.66 0 0 1 4.11.43 4.3 4.3 0 0 1 .1 1.05q.05 1 .05 1.3t-.42.24a.59.59 0 0 1-.24-.06 2.15 2.15 0 0 0-.25-.6 4.15 4.15 0 0 0-.55-.69 2.69 2.69 0 0 0-1.08-.64 5 5 0 0 0-1.65-.25 3.1 3.1 0 0 0-2.66 1.3 5.16 5.16 0 0 0-.95 3.12 5.51 5.51 0 0 0 1.11 3.41 3.57 3.57 0 0 0 3 1.41 3.33 3.33 0 0 0 2.45-.9 2.19 2.19 0 0 0 .41-.6q.18-.38.28-.64t.13-.26q.63.05.7.19zm3.59-7.63l2.23-.1a1 1 0 0 1 0 .26q0 .27-.07.27a3.2 3.2 0 0 0-.63.12q-.47.12-.49.25a5.43 5.43 0 0 0-.14 1.42v3.7a4.18 4.18 0 0 0 .77 2.65 2.58 2.58 0 0 0 2.15 1 2.9 2.9 0 0 0 2.15-.81 3.72 3.72 0 0 0 .81-2.7v-3.93a3.05 3.05 0 0 0-.17-1.29 1.23 1.23 0 0 0-.62-.28 3.32 3.32 0 0 0-.74-.14s-.07-.07-.08-.23a.49.49 0 0 1 0-.29q1.88.11 2.19.11t1.16-.06l.9-.06a.88.88 0 0 1 0 .26c0 .17 0 .26-.07.26a3.6 3.6 0 0 0-.75.12 1.16 1.16 0 0 0-.66.33 3.35 3.35 0 0 0-.19 1.34v3.78a6.35 6.35 0 0 1-.33 2.16 3.34 3.34 0 0 1-.94 1.43 3.87 3.87 0 0 1-1.38.76 5.94 5.94 0 0 1-1.77.24 4.52 4.52 0 0 1-3.17-1.14 5.06 5.06 0 0 1-1.2-3.76v-3.51a4.13 4.13 0 0 0-.14-1.35q-.07-.13-.49-.25a2.49 2.49 0 0 0-.63-.12s-.07-.08-.07-.24 0-.26.05-.29zm14.11 2.22v6.05a4.38 4.38 0 0 0 .16 1.29q.09.21 1.18.21h.64a5 5 0 0 0 2.08-.34 1.94 1.94 0 0 0 .63-.56 3.31 3.31 0 0 0 .54-1c0-.06.09-.1.24-.1a.8.8 0 0 1 .49.1l-.25.66-.3.78q-.1.27-.23.65a4.08 4.08 0 0 0-.16.63H78.31l-2.32.06s-.05-.12-.05-.26 0-.27.05-.27a3.09 3.09 0 0 0 .66-.1q.44-.1.51-.25a5.41 5.41 0 0 0 .12-1.46v-6.08a4.57 4.57 0 0 0-.14-1.37q-.07-.13-.49-.25A2.49 2.49 0 0 0 76 143s-.07-.08-.07-.24a.61.61 0 0 1 0-.29h2.35l2.23-.1a.78.78 0 0 1 .05.26c0 .18 0 .27-.07.27a3 3 0 0 0-.63.13q-.47.13-.51.24a5.54 5.54 0 0 0-.11 1.52zm9.59-2.25H91.18a6.12 6.12 0 0 1 1 .09 4.43 4.43 0 0 1 1 .31 3.71 3.71 0 0 1 .91.55 2.59 2.59 0 0 1 .9 2 2.89 2.89 0 0 1-.43 1.48 3.52 3.52 0 0 1-1.29 1.23 3.76 3.76 0 0 1-1.94.51 2.31 2.31 0 0 1-.73-.12 1 1 0 0 1-.51-.3.32.32 0 0 1-.06-.16.67.67 0 0 1 0-.24c0-.07 0-.11.05-.11a2.62 2.62 0 0 0 1 .16 1.58 1.58 0 0 0 1.32-.64 2.56 2.56 0 0 0 .49-1.6 2.79 2.79 0 0 0-.47-1.71 1.69 1.69 0 0 0-1.45-.63 3.06 3.06 0 0 0-1 .11q-.21.1-.21 1.67v5.75a4.66 4.66 0 0 0 .14 1.37q.05.19.58.31a4 4 0 0 0 .77.12s.07.09.07.27a.84.84 0 0 1 0 .27q-1.91-.1-2.47-.1h-2.33a.52.52 0 0 1-.05-.29q0-.26.05-.26a3.2 3.2 0 0 0 .67-.1q.44-.1.51-.25a5.9 5.9 0 0 0 .1-1.46v-6.08a5.85 5.85 0 0 0-.1-1.32q-.05-.13-.51-.27a2.7 2.7 0 0 0-.67-.14s-.07-.08-.07-.24 0-.26.07-.29zm11.17-.01H103.85l1.9-.06a6.25 6.25 0 0 0 1.2-.16l.33 2.46a.71.71 0 0 1-.47.11q-.14 0-.17-.08a2.27 2.27 0 0 0-.64-1.2 2 2 0 0 0-1.25-.31q-1.62 0-1.69.27a5.22 5.22 0 0 0-.16 1.51v5.81a5.1 5.1 0 0 0 .16 1.4c0 .08.17.15.47.23a3 3 0 0 0 .61.12s.07.1.07.29a.78.78 0 0 1 0 .26h-3.51l-1 .06a.35.35 0 0 1-.07-.26c0-.19 0-.29.07-.29a3 3 0 0 0 .65-.11q.44-.11.5-.24A4.72 4.72 0 0 0 101 151v-5.83a4.11 4.11 0 0 0-.16-1.56q-.14-.27-1.65-.27a2 2 0 0 0-1.25.31 2.34 2.34 0 0 0-.66 1.18q0 .1-.17.1a.62.62 0 0 1-.45-.13l.33-2.45a6.25 6.25 0 0 0 1.2.16z"/></g></g></svg>